<svg width="48" height="48" viewBox="0 0 48 48" fill="none" xmlns="http://www.w3.org/2000/svg">
  <rect width="48" height="48" rx="8" fill="#10A37F"/>
  <path d="M24 12C17.373 12 12 17.373 12 24C12 30.627 17.373 36 24 36C30.627 36 36 30.627 36 24C36 17.373 30.627 12 24 12ZM24 33C19.029 33 15 28.971 15 24C15 19.029 19.029 15 24 15C28.971 15 33 19.029 33 24C33 28.971 28.971 33 24 33Z" fill="white"/>
  <path d="M24 18C20.686 18 18 20.686 18 24C18 27.314 20.686 30 24 30C27.314 30 30 27.314 30 24C30 20.686 27.314 18 24 18ZM24 27C22.343 27 21 25.657 21 24C21 22.343 22.343 21 24 21C25.657 21 27 22.343 27 24C27 25.657 25.657 27 24 27Z" fill="white"/>
</svg>
